<?xml version="1.0" encoding="UTF-8" standalone="no"?>
<!DOCTYPE svg PUBLIC "-//W3C//DTD SVG 1.0//EN" "http://www.w3.org/TR/2001/PR-SVG-20010719/DTD/svg10.dtd">
<svg width="39cm" height="86cm" viewBox="40 -244 774 1711" xmlns="http://www.w3.org/2000/svg" xmlns:xlink="http://www.w3.org/1999/xlink">
  <g>
    <rect style="fill: #ffffff" x="349" y="-180" width="164.6" height="18"/>
    <rect style="fill: none; fill-opacity:0; stroke-width: 2; stroke: #000000" x="349" y="-180" width="164.6" height="18"/>
    <text font-size="11.2" style="fill: #000000;text-anchor:middle;font-family:sans-serif;font-style:normal;font-weight:700" x="431.3" y="-166">Account</text>
    <rect style="fill: #ffffff" x="349" y="-162" width="164.6" height="68"/>
    <rect style="fill: none; fill-opacity:0; stroke-width: 2; stroke: #000000" x="349" y="-162" width="164.6" height="68"/>
    <polygon style="fill: #000000" points="352,-152 354,-149 356,-152 354,-155 "/>
    <text font-size="12.8" style="fill: #000000;text-anchor:start;font-family:monospace;font-style:normal;font-weight:normal" x="358" y="-146">id</text>
    <text font-size="12.8" style="fill: #000000;text-anchor:start;font-family:monospace;font-style:normal;font-weight:normal" x="452.7" y="-146">Int</text>
    <line style="fill: none; fill-opacity:0; stroke-width: 1; stroke: #000000" x1="358" y1="-144.4" x2="475.8" y2="-144.4"/>
    <ellipse style="fill: #000000" cx="354" cy="-136" rx="2" ry="2"/>
    <text font-size="12.8" style="fill: #000000;text-anchor:start;font-family:monospace;font-style:normal;font-weight:normal" x="358" y="-130">dynamics_id</text>
    <text font-size="12.8" style="fill: #000000;text-anchor:start;font-family:monospace;font-style:normal;font-weight:normal" x="452.7" y="-130">guid</text>
    <ellipse style="fill: #000000" cx="354" cy="-120" rx="2" ry="2"/>
    <text font-size="12.8" style="fill: #000000;text-anchor:start;font-family:monospace;font-style:normal;font-weight:normal" x="358" y="-114">name</text>
    <text font-size="12.8" style="fill: #000000;text-anchor:start;font-family:monospace;font-style:normal;font-weight:normal" x="452.7" y="-114">varchar</text>
    <ellipse style="fill: none; fill-opacity:0; stroke-width: 0.2; stroke: #000000" cx="354" cy="-104" rx="2" ry="2"/>
    <text font-size="12.8" style="fill: #000000;text-anchor:start;font-family:monospace;font-style:normal;font-weight:normal" x="358" y="-98">parent</text>
    <text font-size="12.8" style="fill: #000000;text-anchor:start;font-family:monospace;font-style:normal;font-weight:normal" x="452.7" y="-98">int</text>
  </g>
  <g>
    <rect style="fill: #ffffff" x="586" y="-102" width="126.1" height="18"/>
    <rect style="fill: none; fill-opacity:0; stroke-width: 2; stroke: #000000" x="586" y="-102" width="126.1" height="18"/>
    <text font-size="11.2" style="fill: #000000;text-anchor:middle;font-family:sans-serif;font-style:normal;font-weight:700" x="649.05" y="-88">Manager</text>
    <rect style="fill: #ffffff" x="586" y="-84" width="126.1" height="52"/>
    <rect style="fill: none; fill-opacity:0; stroke-width: 2; stroke: #000000" x="586" y="-84" width="126.1" height="52"/>
    <polygon style="fill: #000000" points="589,-74 591,-71 593,-74 591,-77 "/>
    <text font-size="12.8" style="fill: #000000;text-anchor:start;font-family:monospace;font-style:normal;font-weight:normal" x="595" y="-68">id</text>
    <text font-size="12.8" style="fill: #000000;text-anchor:start;font-family:monospace;font-style:normal;font-weight:normal" x="682" y="-68">int</text>
    <line style="fill: none; fill-opacity:0; stroke-width: 1; stroke: #000000" x1="595" y1="-66.4" x2="705.1" y2="-66.4"/>
    <ellipse style="fill: #000000" cx="591" cy="-58" rx="2" ry="2"/>
    <text font-size="12.8" style="fill: #000000;text-anchor:start;font-family:monospace;font-style:normal;font-weight:normal" x="595" y="-52">contact_id</text>
    <text font-size="12.8" style="fill: #000000;text-anchor:start;font-family:monospace;font-style:normal;font-weight:normal" x="682" y="-52">int</text>
    <ellipse style="fill: #000000" cx="591" cy="-42" rx="2" ry="2"/>
    <text font-size="12.8" style="fill: #000000;text-anchor:start;font-family:monospace;font-style:normal;font-weight:normal" x="595" y="-36">account_id</text>
    <text font-size="12.8" style="fill: #000000;text-anchor:start;font-family:monospace;font-style:normal;font-weight:normal" x="682" y="-36">int</text>
  </g>
  <g>
    <polyline style="fill: none; fill-opacity:0; stroke-width: 2; stroke: #000000" points="513.6,-104 563,-104 563,-42 586,-42 "/>
    <text font-size="9.6" style="fill: #000000;text-anchor:start;font-family:monospace;font-style:normal;font-weight:normal" x="517.6" y="-108">1</text>
    <text font-size="9.6" style="fill: #000000;text-anchor:end;font-family:monospace;font-style:normal;font-weight:normal" x="582" y="-46">n</text>
  </g>
  <text font-size="12.8" style="fill: #000000;text-anchor:start;font-family:sans-serif;font-style:normal;font-weight:normal" x="318" y="-47">
    <tspan x="318" y="-47">has</tspan>
  </text>
  <g>
    <rect style="fill: #ffffff" x="567" y="-244" width="164.6" height="18"/>
    <rect style="fill: none; fill-opacity:0; stroke-width: 2; stroke: #000000" x="567" y="-244" width="164.6" height="18"/>
    <text font-size="11.2" style="fill: #000000;text-anchor:middle;font-family:sans-serif;font-style:normal;font-weight:700" x="649.3" y="-230">Contact</text>
    <rect style="fill: #ffffff" x="567" y="-226" width="164.6" height="84"/>
    <rect style="fill: none; fill-opacity:0; stroke-width: 2; stroke: #000000" x="567" y="-226" width="164.6" height="84"/>
    <polygon style="fill: #000000" points="570,-216 572,-213 574,-216 572,-219 "/>
    <text font-size="12.8" style="fill: #000000;text-anchor:start;font-family:monospace;font-style:normal;font-weight:normal" x="576" y="-210">id</text>
    <text font-size="12.8" style="fill: #000000;text-anchor:start;font-family:monospace;font-style:normal;font-weight:normal" x="670.7" y="-210">int</text>
    <line style="fill: none; fill-opacity:0; stroke-width: 1; stroke: #000000" x1="576" y1="-208.4" x2="693.8" y2="-208.4"/>
    <ellipse style="fill: none; fill-opacity:0; stroke-width: 0.2; stroke: #000000" cx="572" cy="-200" rx="2" ry="2"/>
    <text font-size="12.8" style="fill: #000000;text-anchor:start;font-family:monospace;font-style:normal;font-weight:normal" x="576" y="-194">dynamics_id</text>
    <text font-size="12.8" style="fill: #000000;text-anchor:start;font-family:monospace;font-style:normal;font-weight:normal" x="670.7" y="-194">guid</text>
    <ellipse style="fill: none; fill-opacity:0; stroke-width: 0.2; stroke: #000000" cx="572" cy="-184" rx="2" ry="2"/>
    <text font-size="12.8" style="fill: #000000;text-anchor:start;font-family:monospace;font-style:normal;font-weight:normal" x="576" y="-178">account_id</text>
    <text font-size="12.8" style="fill: #000000;text-anchor:start;font-family:monospace;font-style:normal;font-weight:normal" x="670.7" y="-178">int</text>
    <ellipse style="fill: #000000" cx="572" cy="-168" rx="2" ry="2"/>
    <text font-size="12.8" style="fill: #000000;text-anchor:start;font-family:monospace;font-style:normal;font-weight:normal" x="576" y="-162">name</text>
    <text font-size="12.8" style="fill: #000000;text-anchor:start;font-family:monospace;font-style:normal;font-weight:normal" x="670.7" y="-162">varchar</text>
    <ellipse style="fill: #000000" cx="572" cy="-152" rx="2" ry="2"/>
    <text font-size="12.8" style="fill: #000000;text-anchor:start;font-family:monospace;font-style:normal;font-weight:normal" x="576" y="-146">email</text>
    <text font-size="12.8" style="fill: #000000;text-anchor:start;font-family:monospace;font-style:normal;font-weight:normal" x="670.7" y="-146">varchar</text>
  </g>
  <g>
    <rect style="fill: #ffffff" x="346" y="-58" width="180" height="18"/>
    <rect style="fill: none; fill-opacity:0; stroke-width: 2; stroke: #000000" x="346" y="-58" width="180" height="18"/>
    <text font-size="11.2" style="fill: #000000;text-anchor:middle;font-family:sans-serif;font-style:normal;font-weight:700" x="436" y="-44">Order</text>
    <rect style="fill: #ffffff" x="346" y="-40" width="180" height="116"/>
    <rect style="fill: none; fill-opacity:0; stroke-width: 2; stroke: #000000" x="346" y="-40" width="180" height="116"/>
    <polygon style="fill: #000000" points="349,-30 351,-27 353,-30 351,-33 "/>
    <text font-size="12.8" style="fill: #000000;text-anchor:start;font-family:monospace;font-style:normal;font-weight:normal" x="355" y="-24">id</text>
    <text font-size="12.8" style="fill: #000000;text-anchor:start;font-family:monospace;font-style:normal;font-weight:normal" x="449.7" y="-24">int</text>
    <line style="fill: none; fill-opacity:0; stroke-width: 1; stroke: #000000" x1="355" y1="-22.4" x2="472.8" y2="-22.4"/>
    <ellipse style="fill: #000000" cx="351" cy="-14" rx="2" ry="2"/>
    <text font-size="12.8" style="fill: #000000;text-anchor:start;font-family:monospace;font-style:normal;font-weight:normal" x="355" y="-8">dynamics_id</text>
    <text font-size="12.8" style="fill: #000000;text-anchor:start;font-family:monospace;font-style:normal;font-weight:normal" x="449.7" y="-8">guid</text>
    <ellipse style="fill: #000000" cx="351" cy="2" rx="2" ry="2"/>
    <text font-size="12.8" style="fill: #000000;text-anchor:start;font-family:monospace;font-style:normal;font-weight:normal" x="355" y="8">name</text>
    <text font-size="12.8" style="fill: #000000;text-anchor:start;font-family:monospace;font-style:normal;font-weight:normal" x="449.7" y="8">varchar</text>
    <ellipse style="fill: none; fill-opacity:0; stroke-width: 0.2; stroke: #000000" cx="351" cy="18" rx="2" ry="2"/>
    <text font-size="12.8" style="fill: #000000;text-anchor:start;font-family:monospace;font-style:normal;font-weight:normal" x="355" y="24">description</text>
    <text font-size="12.8" style="fill: #000000;text-anchor:start;font-family:monospace;font-style:normal;font-weight:normal" x="449.7" y="24">text</text>
    <ellipse style="fill: #000000" cx="351" cy="34" rx="2" ry="2"/>
    <text font-size="12.8" style="fill: #000000;text-anchor:start;font-family:monospace;font-style:normal;font-weight:normal" x="355" y="40">biller_id</text>
    <text font-size="12.8" style="fill: #000000;text-anchor:start;font-family:monospace;font-style:normal;font-weight:normal" x="449.7" y="40">int</text>
    <ellipse style="fill: #000000" cx="351" cy="50" rx="2" ry="2"/>
    <text font-size="12.8" style="fill: #000000;text-anchor:start;font-family:monospace;font-style:normal;font-weight:normal" x="355" y="56">manager_id</text>
    <text font-size="12.8" style="fill: #000000;text-anchor:start;font-family:monospace;font-style:normal;font-weight:normal" x="449.7" y="56">int</text>
    <ellipse style="fill: #000000" cx="351" cy="66" rx="2" ry="2"/>
    <text font-size="12.8" style="fill: #000000;text-anchor:start;font-family:monospace;font-style:normal;font-weight:normal" x="355" y="72">record_date</text>
    <text font-size="12.8" style="fill: #000000;text-anchor:start;font-family:monospace;font-style:normal;font-weight:normal" x="449.7" y="72">timestamp</text>
  </g>
  <g>
    <rect style="fill: #ffffff" x="354" y="121" width="164.6" height="18"/>
    <rect style="fill: none; fill-opacity:0; stroke-width: 2; stroke: #000000" x="354" y="121" width="164.6" height="18"/>
    <text font-size="11.2" style="fill: #000000;text-anchor:middle;font-family:sans-serif;font-style:normal;font-weight:700" x="436.3" y="135">Orderline</text>
    <rect style="fill: #ffffff" x="354" y="139" width="164.6" height="116"/>
    <rect style="fill: none; fill-opacity:0; stroke-width: 2; stroke: #000000" x="354" y="139" width="164.6" height="116"/>
    <polygon style="fill: #000000" points="357,149 359,152 361,149 359,146 "/>
    <text font-size="12.8" style="fill: #000000;text-anchor:start;font-family:monospace;font-style:normal;font-weight:normal" x="363" y="155">id</text>
    <text font-size="12.8" style="fill: #000000;text-anchor:start;font-family:monospace;font-style:normal;font-weight:normal" x="457.7" y="155">int</text>
    <line style="fill: none; fill-opacity:0; stroke-width: 1; stroke: #000000" x1="363" y1="156.6" x2="480.8" y2="156.6"/>
    <ellipse style="fill: #000000" cx="359" cy="165" rx="2" ry="2"/>
    <text font-size="12.8" style="fill: #000000;text-anchor:start;font-family:monospace;font-style:normal;font-weight:normal" x="363" y="171">dynamics_id</text>
    <text font-size="12.8" style="fill: #000000;text-anchor:start;font-family:monospace;font-style:normal;font-weight:normal" x="457.7" y="171">guid</text>
    <ellipse style="fill: #000000" cx="359" cy="181" rx="2" ry="2"/>
    <text font-size="12.8" style="fill: #000000;text-anchor:start;font-family:monospace;font-style:normal;font-weight:normal" x="363" y="187">order_id</text>
    <text font-size="12.8" style="fill: #000000;text-anchor:start;font-family:monospace;font-style:normal;font-weight:normal" x="457.7" y="187">int</text>
    <ellipse style="fill: #000000" cx="359" cy="197" rx="2" ry="2"/>
    <text font-size="12.8" style="fill: #000000;text-anchor:start;font-family:monospace;font-style:normal;font-weight:normal" x="363" y="203">product_id</text>
    <text font-size="12.8" style="fill: #000000;text-anchor:start;font-family:monospace;font-style:normal;font-weight:normal" x="457.7" y="203">int</text>
    <ellipse style="fill: #000000" cx="359" cy="213" rx="2" ry="2"/>
    <text font-size="12.8" style="fill: #000000;text-anchor:start;font-family:monospace;font-style:normal;font-weight:normal" x="363" y="219">quantity</text>
    <text font-size="12.8" style="fill: #000000;text-anchor:start;font-family:monospace;font-style:normal;font-weight:normal" x="457.7" y="219">int</text>
    <ellipse style="fill: #000000" cx="359" cy="229" rx="2" ry="2"/>
    <text font-size="12.8" style="fill: #000000;text-anchor:start;font-family:monospace;font-style:normal;font-weight:normal" x="363" y="235">identifier</text>
    <text font-size="12.8" style="fill: #000000;text-anchor:start;font-family:monospace;font-style:normal;font-weight:normal" x="457.7" y="235">varchar</text>
    <ellipse style="fill: #000000" cx="359" cy="245" rx="2" ry="2"/>
    <text font-size="12.8" style="fill: #000000;text-anchor:start;font-family:monospace;font-style:normal;font-weight:normal" x="363" y="251">price</text>
    <text font-size="12.8" style="fill: #000000;text-anchor:start;font-family:monospace;font-style:normal;font-weight:normal" x="457.7" y="251">float</text>
  </g>
  <g>
    <rect style="fill: #ffffff" x="132" y="137" width="164.6" height="18"/>
    <rect style="fill: none; fill-opacity:0; stroke-width: 2; stroke: #000000" x="132" y="137" width="164.6" height="18"/>
    <text font-size="11.2" style="fill: #000000;text-anchor:middle;font-family:sans-serif;font-style:normal;font-weight:700" x="214.3" y="151">Product</text>
    <rect style="fill: #ffffff" x="132" y="155" width="164.6" height="116"/>
    <rect style="fill: none; fill-opacity:0; stroke-width: 2; stroke: #000000" x="132" y="155" width="164.6" height="116"/>
    <polygon style="fill: #000000" points="135,165 137,168 139,165 137,162 "/>
    <text font-size="12.8" style="fill: #000000;text-anchor:start;font-family:monospace;font-style:normal;font-weight:normal" x="141" y="171">id</text>
    <text font-size="12.8" style="fill: #000000;text-anchor:start;font-family:monospace;font-style:normal;font-weight:normal" x="235.7" y="171">int</text>
    <line style="fill: none; fill-opacity:0; stroke-width: 1; stroke: #000000" x1="141" y1="172.6" x2="258.8" y2="172.6"/>
    <ellipse style="fill: none; fill-opacity:0; stroke-width: 0.2; stroke: #000000" cx="137" cy="181" rx="2" ry="2"/>
    <text font-size="12.8" style="fill: #000000;text-anchor:start;font-family:monospace;font-style:normal;font-weight:normal" x="141" y="187">dynamics_id</text>
    <text font-size="12.8" style="fill: #000000;text-anchor:start;font-family:monospace;font-style:normal;font-weight:normal" x="235.7" y="187">guid</text>
    <ellipse style="fill: #000000" cx="137" cy="197" rx="2" ry="2"/>
    <text font-size="12.8" style="fill: #000000;text-anchor:start;font-family:monospace;font-style:normal;font-weight:normal" x="141" y="203">name</text>
    <text font-size="12.8" style="fill: #000000;text-anchor:start;font-family:monospace;font-style:normal;font-weight:normal" x="235.7" y="203">varchar</text>
    <ellipse style="fill: none; fill-opacity:0; stroke-width: 0.2; stroke: #000000" cx="137" cy="213" rx="2" ry="2"/>
    <text font-size="12.8" style="fill: #000000;text-anchor:start;font-family:monospace;font-style:normal;font-weight:normal" x="141" y="219">no</text>
    <text font-size="12.8" style="fill: #000000;text-anchor:start;font-family:monospace;font-style:normal;font-weight:normal" x="235.7" y="219">varchar</text>
    <ellipse style="fill: none; fill-opacity:0; stroke-width: 0.2; stroke: #000000" cx="137" cy="229" rx="2" ry="2"/>
    <text font-size="12.8" style="fill: #000000;text-anchor:start;font-family:monospace;font-style:normal;font-weight:normal" x="141" y="235">parent_id</text>
    <text font-size="12.8" style="fill: #000000;text-anchor:start;font-family:monospace;font-style:normal;font-weight:normal" x="235.7" y="235">int</text>
    <ellipse style="fill: none; fill-opacity:0; stroke-width: 0.2; stroke: #000000" cx="137" cy="245" rx="2" ry="2"/>
    <text font-size="12.8" style="fill: #000000;text-anchor:start;font-family:monospace;font-style:normal;font-weight:normal" x="141" y="251">structure</text>
    <text font-size="12.8" style="fill: #000000;text-anchor:start;font-family:monospace;font-style:normal;font-weight:normal" x="235.7" y="251">varchar</text>
    <ellipse style="fill: none; fill-opacity:0; stroke-width: 0.2; stroke: #000000" cx="137" cy="261" rx="2" ry="2"/>
    <text font-size="12.8" style="fill: #000000;text-anchor:start;font-family:monospace;font-style:normal;font-weight:normal" x="141" y="267">type</text>
    <text font-size="12.8" style="fill: #000000;text-anchor:start;font-family:monospace;font-style:normal;font-weight:normal" x="235.7" y="267">varchar</text>
  </g>
  <g>
    <rect style="fill: #ffffff" x="580" y="122" width="233.9" height="18"/>
    <rect style="fill: none; fill-opacity:0; stroke-width: 2; stroke: #000000" x="580" y="122" width="233.9" height="18"/>
    <text font-size="11.2" style="fill: #000000;text-anchor:middle;font-family:sans-serif;font-style:normal;font-weight:700" x="696.95" y="136">Various Configuration</text>
    <rect style="fill: #ffffff" x="580" y="140" width="233.9" height="36"/>
    <rect style="fill: none; fill-opacity:0; stroke-width: 2; stroke: #000000" x="580" y="140" width="233.9" height="36"/>
    <polygon style="fill: #000000" points="583,150 585,153 587,150 585,147 "/>
    <text font-size="12.8" style="fill: #000000;text-anchor:start;font-family:monospace;font-style:normal;font-weight:normal" x="589" y="156">id</text>
    <text font-size="12.8" style="fill: #000000;text-anchor:start;font-family:monospace;font-style:normal;font-weight:normal" x="699.1" y="156">int</text>
    <line style="fill: none; fill-opacity:0; stroke-width: 1; stroke: #000000" x1="589" y1="157.6" x2="722.2" y2="157.6"/>
    <ellipse style="fill: #000000" cx="585" cy="166" rx="2" ry="2"/>
    <text font-size="12.8" style="fill: #000000;text-anchor:start;font-family:monospace;font-style:normal;font-weight:normal" x="589" y="172">configuration</text>
    <text font-size="12.8" style="fill: #000000;text-anchor:start;font-family:monospace;font-style:normal;font-weight:normal" x="699.1" y="172">various fields</text>
  </g>
  <g>
    <rect style="fill: #ffffff" x="342" y="282" width="187.7" height="18"/>
    <rect style="fill: none; fill-opacity:0; stroke-width: 2; stroke: #000000" x="342" y="282" width="187.7" height="18"/>
    <text font-size="11.2" style="fill: #000000;text-anchor:middle;font-family:sans-serif;font-style:normal;font-weight:700" x="435.85" y="296">Fee</text>
    <rect style="fill: #ffffff" x="342" y="300" width="187.7" height="84"/>
    <rect style="fill: none; fill-opacity:0; stroke-width: 2; stroke: #000000" x="342" y="300" width="187.7" height="84"/>
    <polygon style="fill: #000000" points="345,310 347,313 349,310 347,307 "/>
    <text font-size="12.8" style="fill: #000000;text-anchor:start;font-family:monospace;font-style:normal;font-weight:normal" x="351" y="316">id</text>
    <text font-size="12.8" style="fill: #000000;text-anchor:start;font-family:monospace;font-style:normal;font-weight:normal" x="453.4" y="316">int</text>
    <line style="fill: none; fill-opacity:0; stroke-width: 1; stroke: #000000" x1="351" y1="317.6" x2="476.5" y2="317.6"/>
    <ellipse style="fill: #000000" cx="347" cy="326" rx="2" ry="2"/>
    <text font-size="12.8" style="fill: #000000;text-anchor:start;font-family:monospace;font-style:normal;font-weight:normal" x="351" y="332">orderline_id</text>
    <text font-size="12.8" style="fill: #000000;text-anchor:start;font-family:monospace;font-style:normal;font-weight:normal" x="453.4" y="332">int</text>
    <ellipse style="fill: none; fill-opacity:0; stroke-width: 0.2; stroke: #000000" cx="347" cy="342" rx="2" ry="2"/>
    <text font-size="12.8" style="fill: #000000;text-anchor:start;font-family:monospace;font-style:normal;font-weight:normal" x="351" y="348">start</text>
    <text font-size="12.8" style="fill: #000000;text-anchor:start;font-family:monospace;font-style:normal;font-weight:normal" x="453.4" y="348">timestamp</text>
    <ellipse style="fill: none; fill-opacity:0; stroke-width: 0.2; stroke: #000000" cx="347" cy="358" rx="2" ry="2"/>
    <text font-size="12.8" style="fill: #000000;text-anchor:start;font-family:monospace;font-style:normal;font-weight:normal" x="351" y="364">end</text>
    <text font-size="12.8" style="fill: #000000;text-anchor:start;font-family:monospace;font-style:normal;font-weight:normal" x="453.4" y="364">timestamp</text>
    <ellipse style="fill: none; fill-opacity:0; stroke-width: 0.2; stroke: #000000" cx="347" cy="374" rx="2" ry="2"/>
    <text font-size="12.8" style="fill: #000000;text-anchor:start;font-family:monospace;font-style:normal;font-weight:normal" x="351" y="380">amount</text>
    <text font-size="12.8" style="fill: #000000;text-anchor:start;font-family:monospace;font-style:normal;font-weight:normal" x="453.4" y="380">float</text>
  </g>
  <g>
    <rect style="fill: #ffffff" x="577" y="281" width="226.2" height="18"/>
    <rect style="fill: none; fill-opacity:0; stroke-width: 2; stroke: #000000" x="577" y="281" width="226.2" height="18"/>
    <text font-size="11.2" style="fill: #000000;text-anchor:middle;font-family:sans-serif;font-style:normal;font-weight:700" x="690.1" y="295">Various Usage</text>
    <rect style="fill: #ffffff" x="577" y="299" width="226.2" height="84"/>
    <rect style="fill: none; fill-opacity:0; stroke-width: 2; stroke: #000000" x="577" y="299" width="226.2" height="84"/>
    <polygon style="fill: #000000" points="580,309 582,312 584,309 582,306 "/>
    <text font-size="12.8" style="fill: #000000;text-anchor:start;font-family:monospace;font-style:normal;font-weight:normal" x="586" y="315">id</text>
    <text font-size="12.8" style="fill: #000000;text-anchor:start;font-family:monospace;font-style:normal;font-weight:normal" x="688.4" y="315">int</text>
    <line style="fill: none; fill-opacity:0; stroke-width: 1; stroke: #000000" x1="586" y1="316.6" x2="711.5" y2="316.6"/>
    <ellipse style="fill: #000000" cx="582" cy="325" rx="2" ry="2"/>
    <text font-size="12.8" style="fill: #000000;text-anchor:start;font-family:monospace;font-style:normal;font-weight:normal" x="586" y="331">start</text>
    <text font-size="12.8" style="fill: #000000;text-anchor:start;font-family:monospace;font-style:normal;font-weight:normal" x="688.4" y="331">timestamp</text>
    <ellipse style="fill: #000000" cx="582" cy="341" rx="2" ry="2"/>
    <text font-size="12.8" style="fill: #000000;text-anchor:start;font-family:monospace;font-style:normal;font-weight:normal" x="586" y="347">end</text>
    <text font-size="12.8" style="fill: #000000;text-anchor:start;font-family:monospace;font-style:normal;font-weight:normal" x="688.4" y="347">timestamp</text>
    <ellipse style="fill: #000000" cx="582" cy="357" rx="2" ry="2"/>
    <text font-size="12.8" style="fill: #000000;text-anchor:start;font-family:monospace;font-style:normal;font-weight:normal" x="586" y="363">orderline_id</text>
    <text font-size="12.8" style="fill: #000000;text-anchor:start;font-family:monospace;font-style:normal;font-weight:normal" x="688.4" y="363">int</text>
    <ellipse style="fill: none; fill-opacity:0; stroke-width: 0.2; stroke: #000000" cx="582" cy="373" rx="2" ry="2"/>
    <text font-size="12.8" style="fill: #000000;text-anchor:start;font-family:monospace;font-style:normal;font-weight:normal" x="586" y="379">quantities</text>
    <text font-size="12.8" style="fill: #000000;text-anchor:start;font-family:monospace;font-style:normal;font-weight:normal" x="688.4" y="379">various fields</text>
  </g>
  <g>
    <rect style="fill: #ffffff" x="335" y="427" width="180" height="18"/>
    <rect style="fill: none; fill-opacity:0; stroke-width: 2; stroke: #000000" x="335" y="427" width="180" height="18"/>
    <text font-size="11.2" style="fill: #000000;text-anchor:middle;font-family:sans-serif;font-style:normal;font-weight:700" x="425" y="441">Price</text>
    <rect style="fill: #ffffff" x="335" y="445" width="180" height="116"/>
    <rect style="fill: none; fill-opacity:0; stroke-width: 2; stroke: #000000" x="335" y="445" width="180" height="116"/>
    <polygon style="fill: #000000" points="338,455 340,458 342,455 340,452 "/>
    <text font-size="12.8" style="fill: #000000;text-anchor:start;font-family:monospace;font-style:normal;font-weight:normal" x="344" y="461">id</text>
    <text font-size="12.8" style="fill: #000000;text-anchor:start;font-family:monospace;font-style:normal;font-weight:normal" x="438.7" y="461">int</text>
    <line style="fill: none; fill-opacity:0; stroke-width: 1; stroke: #000000" x1="344" y1="462.6" x2="461.8" y2="462.6"/>
    <ellipse style="fill: #000000" cx="340" cy="471" rx="2" ry="2"/>
    <text font-size="12.8" style="fill: #000000;text-anchor:start;font-family:monospace;font-style:normal;font-weight:normal" x="344" y="477">dynamics_id</text>
    <text font-size="12.8" style="fill: #000000;text-anchor:start;font-family:monospace;font-style:normal;font-weight:normal" x="438.7" y="477">guid</text>
    <ellipse style="fill: #000000" cx="340" cy="487" rx="2" ry="2"/>
    <text font-size="12.8" style="fill: #000000;text-anchor:start;font-family:monospace;font-style:normal;font-weight:normal" x="344" y="493">list_name</text>
    <text font-size="12.8" style="fill: #000000;text-anchor:start;font-family:monospace;font-style:normal;font-weight:normal" x="438.7" y="493">varchar</text>
    <ellipse style="fill: none; fill-opacity:0; stroke-width: 0.2; stroke: #000000" cx="340" cy="503" rx="2" ry="2"/>
    <text font-size="12.8" style="fill: #000000;text-anchor:start;font-family:monospace;font-style:normal;font-weight:normal" x="344" y="509">product_id</text>
    <text font-size="12.8" style="fill: #000000;text-anchor:start;font-family:monospace;font-style:normal;font-weight:normal" x="438.7" y="509">int</text>
    <ellipse style="fill: none; fill-opacity:0; stroke-width: 0.2; stroke: #000000" cx="340" cy="519" rx="2" ry="2"/>
    <text font-size="12.8" style="fill: #000000;text-anchor:start;font-family:monospace;font-style:normal;font-weight:normal" x="344" y="525">unit</text>
    <text font-size="12.8" style="fill: #000000;text-anchor:start;font-family:monospace;font-style:normal;font-weight:normal" x="438.7" y="525">varchar</text>
    <ellipse style="fill: #000000" cx="340" cy="535" rx="2" ry="2"/>
    <text font-size="12.8" style="fill: #000000;text-anchor:start;font-family:monospace;font-style:normal;font-weight:normal" x="344" y="541">amount</text>
    <text font-size="12.8" style="fill: #000000;text-anchor:start;font-family:monospace;font-style:normal;font-weight:normal" x="438.7" y="541">float</text>
    <ellipse style="fill: #000000" cx="340" cy="551" rx="2" ry="2"/>
    <text font-size="12.8" style="fill: #000000;text-anchor:start;font-family:monospace;font-style:normal;font-weight:normal" x="344" y="557">date</text>
    <text font-size="12.8" style="fill: #000000;text-anchor:start;font-family:monospace;font-style:normal;font-weight:normal" x="438.7" y="557">timestamp</text>
  </g>
  <g>
    <polyline style="fill: none; fill-opacity:0; stroke-width: 2; stroke: #000000" points="712.1,-58 751.6,-58 751.6,-216 731.6,-216 "/>
    <text font-size="9.6" style="fill: #000000;text-anchor:start;font-family:monospace;font-style:normal;font-weight:normal" x="716.1" y="-62">1</text>
    <text font-size="9.6" style="fill: #000000;text-anchor:start;font-family:monospace;font-style:normal;font-weight:normal" x="735.6" y="-220">1</text>
  </g>
  <g>
    <polyline style="fill: none; fill-opacity:0; stroke-width: 2; stroke: #000000" points="436.3,255 436.3,268.5 435.85,268.5 435.85,282 "/>
    <text font-size="9.6" style="fill: #000000;text-anchor:start;font-family:monospace;font-style:normal;font-weight:normal" x="440.3" y="267">1</text>
    <text font-size="9.6" style="fill: #000000;text-anchor:start;font-family:monospace;font-style:normal;font-weight:normal" x="439.85" y="278">n</text>
  </g>
  <g>
    <polyline style="fill: none; fill-opacity:0; stroke-width: 2; stroke: #000000" points="354,197 354,197 296.6,197 296.6,197 "/>
    <text font-size="9.6" style="fill: #000000;text-anchor:end;font-family:monospace;font-style:normal;font-weight:normal" x="350" y="193">1</text>
    <text font-size="9.6" style="fill: #000000;text-anchor:start;font-family:monospace;font-style:normal;font-weight:normal" x="300.6" y="193">n</text>
  </g>
  <g>
    <polyline style="fill: none; fill-opacity:0; stroke-width: 2; stroke: #000000" points="517.6,197 548.3,197 548.3,150 579,150 "/>
    <text font-size="9.6" style="fill: #000000;text-anchor:start;font-family:monospace;font-style:normal;font-weight:normal" x="521.6" y="193">1</text>
    <text font-size="9.6" style="fill: #000000;text-anchor:end;font-family:monospace;font-style:normal;font-weight:normal" x="575" y="146">1</text>
  </g>
  <text font-size="12.8" style="fill: #000000;text-anchor:start;font-family:sans-serif;font-style:normal;font-weight:normal" x="71" y="205">
    <tspan x="71" y="205">has child</tspan>
  </text>
  <g>
    <ellipse style="fill: #ffffff" cx="94" cy="1046" rx="6" ry="6"/>
    <ellipse style="fill: none; fill-opacity:0; stroke-width: 2; stroke: #000000" cx="94" cy="1046" rx="6" ry="6"/>
    <line style="fill: none; fill-opacity:0; stroke-width: 2; stroke: #000000" x1="70" y1="1058" x2="118" y2="1058"/>
    <line style="fill: none; fill-opacity:0; stroke-width: 2; stroke: #000000" x1="94" y1="1052" x2="94" y2="1082"/>
    <line style="fill: none; fill-opacity:0; stroke-width: 2; stroke: #000000" x1="94" y1="1082" x2="70" y2="1108"/>
    <line style="fill: none; fill-opacity:0; stroke-width: 2; stroke: #000000" x1="94" y1="1082" x2="118" y2="1108"/>
    <text font-size="12.8" style="fill: #000000;text-anchor:middle;font-family:sans-serif;font-style:normal;font-weight:normal" x="94" y="1131.9">
      <tspan x="94" y="1131.9">Account Manger</tspan>
    </text>
  </g>
  <g>
    <ellipse style="fill: #ffffff" cx="89" cy="1341" rx="6" ry="6"/>
    <ellipse style="fill: none; fill-opacity:0; stroke-width: 2; stroke: #000000" cx="89" cy="1341" rx="6" ry="6"/>
    <line style="fill: none; fill-opacity:0; stroke-width: 2; stroke: #000000" x1="65" y1="1353" x2="113" y2="1353"/>
    <line style="fill: none; fill-opacity:0; stroke-width: 2; stroke: #000000" x1="89" y1="1347" x2="89" y2="1377"/>
    <line style="fill: none; fill-opacity:0; stroke-width: 2; stroke: #000000" x1="89" y1="1377" x2="65" y2="1403"/>
    <line style="fill: none; fill-opacity:0; stroke-width: 2; stroke: #000000" x1="89" y1="1377" x2="113" y2="1403"/>
    <text font-size="12.8" style="fill: #000000;text-anchor:middle;font-family:sans-serif;font-style:normal;font-weight:normal" x="89" y="1426.9">
      <tspan x="89" y="1426.9">Order Manager</tspan>
    </text>
  </g>
  <g>
    <ellipse style="fill: #ffffff" cx="92" cy="769" rx="6" ry="6"/>
    <ellipse style="fill: none; fill-opacity:0; stroke-width: 2; stroke: #000000" cx="92" cy="769" rx="6" ry="6"/>
    <line style="fill: none; fill-opacity:0; stroke-width: 2; stroke: #000000" x1="68" y1="781" x2="116" y2="781"/>
    <line style="fill: none; fill-opacity:0; stroke-width: 2; stroke: #000000" x1="92" y1="775" x2="92" y2="805"/>
    <line style="fill: none; fill-opacity:0; stroke-width: 2; stroke: #000000" x1="92" y1="805" x2="68" y2="831"/>
    <line style="fill: none; fill-opacity:0; stroke-width: 2; stroke: #000000" x1="92" y1="805" x2="116" y2="831"/>
    <text font-size="12.8" style="fill: #000000;text-anchor:middle;font-family:sans-serif;font-style:normal;font-weight:normal" x="92" y="854.9">
      <tspan x="92" y="854.9">Administrator</tspan>
    </text>
  </g>
  <g>
    <ellipse style="fill: #ffffff" cx="294.15" cy="830" rx="69.15" ry="32"/>
    <ellipse style="fill: none; fill-opacity:0; stroke-width: 2; stroke: #000000" cx="294.15" cy="830" rx="69.15" ry="32"/>
    <text font-size="12.8" style="fill: #000000;text-anchor:middle;font-family:sans-serif;font-style:normal;font-weight:normal" x="294.15" y="825.9">
      <tspan x="294.15" y="825.9">Get fees</tspan>
      <tspan x="294.15" y="841.9">of a period</tspan>
    </text>
  </g>
  <g>
    <ellipse style="fill: #ffffff" cx="316.85" cy="1296" rx="72.85" ry="48"/>
    <ellipse style="fill: none; fill-opacity:0; stroke-width: 2; stroke: #000000" cx="316.85" cy="1296" rx="72.85" ry="48"/>
    <text font-size="12.8" style="fill: #000000;text-anchor:middle;font-family:sans-serif;font-style:normal;font-weight:normal" x="316.85" y="1283.9">
      <tspan x="316.85" y="1283.9">Get fees</tspan>
      <tspan x="316.85" y="1299.9">of an Order</tspan>
      <tspan x="316.85" y="1315.9">of a period</tspan>
    </text>
  </g>
  <g>
    <ellipse style="fill: #ffffff" cx="292.9" cy="915" rx="76.9" ry="48"/>
    <ellipse style="fill: none; fill-opacity:0; stroke-width: 2; stroke: #000000" cx="292.9" cy="915" rx="76.9" ry="48"/>
    <text font-size="12.8" style="fill: #000000;text-anchor:middle;font-family:sans-serif;font-style:normal;font-weight:normal" x="292.9" y="902.9">
      <tspan x="292.9" y="902.9">Get fees</tspan>
      <tspan x="292.9" y="918.9">of a Product</tspan>
      <tspan x="292.9" y="934.9">of a period</tspan>
    </text>
  </g>
  <g>
    <ellipse style="fill: #ffffff" cx="288.15" cy="745" rx="81.15" ry="48"/>
    <ellipse style="fill: none; fill-opacity:0; stroke-width: 2; stroke: #000000" cx="288.15" cy="745" rx="81.15" ry="48"/>
    <text font-size="12.8" style="fill: #000000;text-anchor:middle;font-family:sans-serif;font-style:normal;font-weight:normal" x="288.15" y="732.9">
      <tspan x="288.15" y="732.9">Get price of</tspan>
      <tspan x="288.15" y="748.9">a product on</tspan>
      <tspan x="288.15" y="764.9">a date</tspan>
    </text>
  </g>
  <line style="fill: none; fill-opacity:0; stroke-width: 2; stroke: #000000" x1="117" y1="805" x2="207" y2="745"/>
  <line style="fill: none; fill-opacity:0; stroke-width: 2; stroke: #000000" x1="117" y1="805" x2="225" y2="830"/>
  <g>
    <ellipse style="fill: #ffffff" cx="296.4" cy="1033.7" rx="88.1" ry="48"/>
    <ellipse style="fill: none; fill-opacity:0; stroke-width: 2; stroke: #000000" cx="296.4" cy="1033.7" rx="88.1" ry="48"/>
    <text font-size="12.8" style="fill: #000000;text-anchor:middle;font-family:sans-serif;font-style:normal;font-weight:normal" x="296.4" y="1021.6">
      <tspan x="296.4" y="1021.6">Get fees</tspan>
      <tspan x="296.4" y="1037.6">of a period</tspan>
      <tspan x="296.4" y="1053.6">of an Account</tspan>
    </text>
  </g>
  <g>
    <ellipse style="fill: #ffffff" cx="297.35" cy="1150.07" rx="92.05" ry="61.3667"/>
    <ellipse style="fill: none; fill-opacity:0; stroke-width: 2; stroke: #000000" cx="297.35" cy="1150.07" rx="92.05" ry="61.3667"/>
    <text font-size="12.8" style="fill: #000000;text-anchor:middle;font-family:sans-serif;font-style:normal;font-weight:normal" x="297.35" y="1129.97">
      <tspan x="297.35" y="1129.97">Get fees</tspan>
      <tspan x="297.35" y="1145.97">of a Product</tspan>
      <tspan x="297.35" y="1161.97">of an Account</tspan>
      <tspan x="297.35" y="1177.97">of a period</tspan>
    </text>
  </g>
  <g>
    <ellipse style="fill: #ffffff" cx="316.75" cy="1407.58" rx="86.45" ry="57.6333"/>
    <ellipse style="fill: none; fill-opacity:0; stroke-width: 2; stroke: #000000" cx="316.75" cy="1407.58" rx="86.45" ry="57.6333"/>
    <text font-size="12.8" style="fill: #000000;text-anchor:middle;font-family:sans-serif;font-style:normal;font-weight:normal" x="316.75" y="1387.48">
      <tspan x="316.75" y="1387.48">Get fees</tspan>
      <tspan x="316.75" y="1403.48">of a Product</tspan>
      <tspan x="316.75" y="1419.48">of an Order</tspan>
      <tspan x="316.75" y="1435.48">of a period</tspan>
    </text>
  </g>
  <line style="fill: none; fill-opacity:0; stroke-width: 2; stroke: #000000" x1="117" y1="805" x2="216" y2="915"/>
  <line style="fill: none; fill-opacity:0; stroke-width: 2; stroke: #000000" x1="119" y1="1082" x2="208.3" y2="1033.7"/>
  <line style="fill: none; fill-opacity:0; stroke-width: 2; stroke: #000000" x1="119" y1="1082" x2="205.3" y2="1150.07"/>
  <line style="fill: none; fill-opacity:0; stroke-width: 2; stroke: #000000" x1="114" y1="1377" x2="244" y2="1296"/>
  <line style="fill: none; fill-opacity:0; stroke-width: 2; stroke: #000000" x1="114" y1="1377" x2="230.3" y2="1407.58"/>
  <g>
    <polyline style="fill: none; fill-opacity:0; stroke-width: 2; stroke: #000000" points="436,76 436,98.5 436.3,98.5 436.3,121 "/>
    <text font-size="9.6" style="fill: #000000;text-anchor:start;font-family:monospace;font-style:normal;font-weight:normal" x="440" y="88">1</text>
    <text font-size="9.6" style="fill: #000000;text-anchor:start;font-family:monospace;font-style:normal;font-weight:normal" x="440.3" y="117">n</text>
  </g>
  <g>
    <polyline style="fill: none; fill-opacity:0; stroke-width: 2; stroke: #000000" points="349,-152 326,-152 326,34 346,34 "/>
    <text font-size="9.6" style="fill: #000000;text-anchor:end;font-family:monospace;font-style:normal;font-weight:normal" x="345" y="-156">1</text>
    <text font-size="9.6" style="fill: #000000;text-anchor:end;font-family:monospace;font-style:normal;font-weight:normal" x="342" y="30">n</text>
  </g>
  <g>
    <polyline style="fill: none; fill-opacity:0; stroke-width: 2; stroke: #000000" points="567,-216 292,-216 292,50 346,50 "/>
    <text font-size="9.6" style="fill: #000000;text-anchor:end;font-family:monospace;font-style:normal;font-weight:normal" x="563" y="-220">1</text>
    <text font-size="9.6" style="fill: #000000;text-anchor:end;font-family:monospace;font-style:normal;font-weight:normal" x="342" y="46">n</text>
  </g>
  <g>
    <polyline style="fill: none; fill-opacity:0; stroke-width: 2; stroke: #000000" points="518.6,197 547.8,197 547.8,357 577,357 "/>
    <text font-size="9.6" style="fill: #000000;text-anchor:start;font-family:monospace;font-style:normal;font-weight:normal" x="522.6" y="193">1</text>
    <text font-size="9.6" style="fill: #000000;text-anchor:end;font-family:monospace;font-style:normal;font-weight:normal" x="573" y="353">n</text>
  </g>
  <g>
    <polyline style="fill: none; fill-opacity:0; stroke-width: 2; stroke: #000000" points="132,165 112,165 112,229 132,229 "/>
    <text font-size="9.6" style="fill: #000000;text-anchor:end;font-family:monospace;font-style:normal;font-weight:normal" x="128" y="161">1</text>
    <text font-size="9.6" style="fill: #000000;text-anchor:end;font-family:monospace;font-style:normal;font-weight:normal" x="128" y="225">n</text>
  </g>
  <g>
    <polyline style="fill: none; fill-opacity:0; stroke-width: 2; stroke: #000000" points="296.6,165 315.8,165 315.8,503 335,503 "/>
    <text font-size="9.6" style="fill: #000000;text-anchor:start;font-family:monospace;font-style:normal;font-weight:normal" x="300.6" y="161">1</text>
    <text font-size="9.6" style="fill: #000000;text-anchor:end;font-family:monospace;font-style:normal;font-weight:normal" x="331" y="499">n</text>
  </g>
  <g>
    <polyline style="fill: none; fill-opacity:0; stroke-width: 2; stroke: #000000" points="513.6,-152 540.3,-152 540.3,-184 567,-184 "/>
    <text font-size="9.6" style="fill: #000000;text-anchor:start;font-family:monospace;font-style:normal;font-weight:normal" x="517.6" y="-156">1</text>
    <text font-size="9.6" style="fill: #000000;text-anchor:end;font-family:monospace;font-style:normal;font-weight:normal" x="563" y="-188">n</text>
  </g>
</svg>
